<svg width="1249" height="426" viewBox="0 0 1249 426" fill="none" xmlns="http://www.w3.org/2000/svg">
<path fill-rule="evenodd" clip-rule="evenodd" d="M237.074 1H544.888L353.474 337.59H1249V425.537L326.244 425.537H0L192.707 87.9768H25.2201V1.00001L237.074 1ZM262.061 337.59L404.561 87.9768H283.571L141.62 337.59H262.061Z" fill="#F9FAFB"/>
<path d="M1220 20.0027V301.003H1151V135.596L1154.01 88.5497L1150.72 119.354L1150.07 120.73L1090.8 278.438H1022.96L963.229 120.73V135.596V301.003H894V20.0027H991.244L1052.83 207.549L1057 229.901L1061.17 207.549L1122.76 20.0027H1220Z" fill="#F9FAFB"/>
<path d="M1151 135.596L1154.01 88.5497L1150.72 119.354L1151 135.596Z" fill="#F9FAFB"/>
<path d="M612.165 153.422C612.165 170.265 615.723 185.542 622.839 199.255C630.11 212.819 640.087 223.625 652.772 231.674C665.612 239.722 680.463 243.747 697.324 243.747C714.186 243.747 728.959 239.722 741.644 231.674C754.484 223.625 764.462 212.819 771.578 199.255C778.848 185.542 782.484 170.265 782.484 153.422C782.484 136.579 778.848 121.376 771.578 107.812C764.462 94.2484 754.484 83.4422 741.644 75.3935C728.959 67.1957 714.186 63.0968 697.324 63.0968C680.463 63.0968 665.612 67.1957 652.772 75.3935C640.087 83.4422 630.11 94.2484 622.839 107.812C615.723 121.376 612.165 136.579 612.165 153.422ZM540 153.422C540 131.958 543.945 111.986 551.834 93.5032C559.724 74.8718 570.784 58.6252 585.016 44.7635C599.248 30.9017 615.955 20.0955 635.137 12.3449C654.319 4.5942 675.048 0.718872 697.324 0.718872C719.91 0.718872 740.716 4.5942 759.743 12.3449C778.926 20.0955 795.555 30.9017 809.632 44.7635C823.864 58.6252 834.848 74.8718 842.582 93.5032C850.472 111.986 854.416 131.958 854.416 153.422C854.416 175.034 850.626 195.156 843.046 213.787C835.466 232.27 824.638 248.516 810.561 262.527C796.483 276.389 779.854 287.195 760.672 294.946C741.489 302.696 720.374 306.572 697.324 306.572C673.811 306.572 652.385 302.696 633.049 294.946C613.867 287.195 597.314 276.389 583.392 262.527C569.469 248.516 558.718 232.27 551.138 213.787C543.713 195.156 540 175.034 540 153.422Z" fill="#F9FAFB"/>
<path d="M740.967 112.322L699.032 99.7414C698.093 99.4595 697.101 99.401 696.135 99.5707C695.169 99.7404 694.257 100.133 693.47 100.719C692.683 101.304 692.044 102.065 691.604 102.941C691.163 103.817 690.934 104.784 690.933 105.764V158.298C685.832 155.038 679.791 153.57 673.763 154.123C667.734 154.677 662.062 157.222 657.64 161.356C653.218 165.491 650.298 170.98 649.341 176.957C648.384 182.935 649.444 189.061 652.354 194.37C655.264 199.678 659.859 203.867 665.413 206.275C670.967 208.683 677.165 209.174 683.029 207.67C688.893 206.165 694.089 202.752 697.798 197.968C701.507 193.183 703.518 187.301 703.514 181.247V139.38L737.35 149.528C738.289 149.81 739.281 149.869 740.247 149.699C741.213 149.529 742.125 149.136 742.912 148.551C743.699 147.966 744.338 147.205 744.778 146.329C745.219 145.453 745.448 144.486 745.449 143.506V118.345C745.448 116.992 745.012 115.676 744.205 114.591C743.397 113.506 742.262 112.711 740.967 112.322ZM676.256 195.924C673.353 195.924 670.516 195.063 668.102 193.45C665.688 191.838 663.807 189.545 662.696 186.864C661.585 184.182 661.295 181.231 661.861 178.383C662.427 175.536 663.825 172.921 665.878 170.869C667.93 168.816 670.546 167.418 673.393 166.852C676.24 166.285 679.191 166.576 681.873 167.687C684.555 168.798 686.847 170.679 688.46 173.093C690.073 175.506 690.933 178.344 690.933 181.247C690.933 185.139 689.387 188.873 686.634 191.625C683.882 194.378 680.149 195.924 676.256 195.924ZM732.868 135.05L703.514 126.244V114.219L732.868 123.026V135.05Z" fill="#F9FAFB"/>
<path d="M676.256 195.924C673.353 195.924 670.516 195.063 668.102 193.45C665.688 191.838 663.807 189.545 662.696 186.864C661.585 184.182 661.295 181.231 661.861 178.383C662.427 175.536 663.825 172.921 665.878 170.869C667.93 168.816 670.546 167.418 673.393 166.852C676.24 166.285 679.191 166.576 681.873 167.687C684.555 168.798 686.847 170.679 688.46 173.093C690.073 175.506 690.933 178.344 690.933 181.247C690.933 185.139 689.387 188.873 686.634 191.625C683.882 194.378 680.149 195.924 676.256 195.924Z" fill="#F9FAFB"/>
<path d="M732.868 135.05L703.514 126.244V114.219L732.868 123.026V135.05Z" fill="#F9FAFB"/>
</svg>
